<svg width="291" height="458" viewBox="0 0 291 458" fill="none" xmlns="http://www.w3.org/2000/svg">
<path d="M139.148 457C139.148 457 189.523 315.628 162.656 226.395C135.788 137.162 115.08 113.621 100.524 92.3003" stroke="#E2ECDF" stroke-width="2" stroke-linecap="round" stroke-linejoin="round"/>
<path d="M163.157 363.58C163.157 363.58 157.058 318.975 131.873 315.607C106.689 312.239 87.0908 326.267 53.5093 326.829" stroke="#E2ECDF" stroke-width="2" stroke-linecap="round" stroke-linejoin="round"/>
<path d="M105.926 318.314C105.926 318.314 95.4876 313.724 82.0539 318.314C68.6202 322.905 53.5093 326.829 53.5093 326.829C53.5093 326.829 87.2541 344.023 105.926 318.314Z" stroke="#E2ECDF" stroke-width="2" stroke-linecap="round" stroke-linejoin="round"/>
<path d="M131.874 315.607C131.874 315.607 131.329 298.217 110.599 274.669" stroke="#E2ECDF" stroke-width="2" stroke-linecap="round" stroke-linejoin="round"/>
<path d="M129.505 305.361C129.505 305.361 116.757 300.04 110.599 274.653C110.582 274.653 135.538 287.556 129.505 305.361Z" stroke="#E2ECDF" stroke-width="2" stroke-linecap="round" stroke-linejoin="round"/>
<path d="M169.392 316.273C169.392 316.273 181.306 253.944 215.301 223.033C240.034 200.539 243.301 194.208 243.301 194.208" stroke="#E2ECDF" stroke-width="2" stroke-linecap="round" stroke-linejoin="round"/>
<path d="M189.665 258.158C189.665 258.158 183.365 236.499 186.164 210.67" stroke="#E2ECDF" stroke-width="2" stroke-linecap="round" stroke-linejoin="round"/>
<path d="M185.45 266.913C185.45 266.913 207.88 240.167 243.819 234.425" stroke="#E2ECDF" stroke-width="2" stroke-linecap="round" stroke-linejoin="round"/>
<path d="M186.398 240.462C186.398 240.462 175.273 226.396 178.481 208.443C181.688 190.491 202.957 168.052 202.957 168.052C202.957 168.052 197.267 223.104 186.398 240.462Z" stroke="#E2ECDF" stroke-width="2" stroke-linecap="round" stroke-linejoin="round"/>
<path d="M211.18 246.291C211.18 246.291 218.629 233.443 229.264 230.2C239.898 226.958 277.406 226.958 277.406 226.958C277.406 226.958 243.449 252.159 211.18 246.291Z" stroke="#E2ECDF" stroke-width="2" stroke-linecap="round" stroke-linejoin="round"/>
<path d="M167.432 247.176C167.432 247.176 154.984 223.59 105.899 210.687" stroke="#E2ECDF" stroke-width="2" stroke-linecap="round" stroke-linejoin="round"/>
<path d="M148.509 228.934C148.509 228.934 137.466 214.65 116.196 204.252C94.9268 193.853 77.3491 185.436 77.3491 185.436C77.3491 185.436 94.9268 220.228 110.598 224.153C126.27 228.077 148.509 228.934 148.509 228.934Z" stroke="#E2ECDF" stroke-width="2" stroke-linecap="round" stroke-linejoin="round"/>
<path d="M148.509 183.586C148.509 183.586 119.36 160.197 89.8896 145.044" stroke="#E2ECDF" stroke-width="2" stroke-linecap="round" stroke-linejoin="round"/>
<path d="M136.682 173.242C136.682 173.242 130.98 158.778 120.525 154.291C110.07 149.804 89.8896 145.012 89.8896 145.012C89.8896 145.012 112.94 172.271 136.682 173.242Z" stroke="#E2ECDF" stroke-width="2" stroke-linecap="round" stroke-linejoin="round"/>
<path d="M136.682 154.073C136.682 154.073 139.034 114.183 163.157 79.3972" stroke="#E2ECDF" stroke-width="2" stroke-linecap="round" stroke-linejoin="round"/>
<path d="M141.419 127.654C141.419 127.654 136.415 109.691 141.419 94.5439C146.423 79.3969 173.035 60.32 178.48 54.1521C178.48 54.1466 166.081 106.345 141.419 127.654Z" stroke="#E2ECDF" stroke-width="2" stroke-linecap="round" stroke-linejoin="round"/>
<path d="M243.274 194.208C243.274 194.208 236.544 154.58 239.903 148.969C243.263 143.358 263.411 127.087 265.088 132.136C266.765 137.184 272.369 157.386 269.57 163.275C266.771 169.165 245.126 191.97 243.274 194.208Z" stroke="#E2ECDF" stroke-width="2" stroke-linecap="round" stroke-linejoin="round"/>
<path d="M243.274 194.207C243.274 194.207 256.251 194.344 264.991 197.914C266.85 198.661 268.917 198.709 270.809 198.048C272.701 197.387 274.29 196.061 275.282 194.317C278.13 189.279 280.085 182.641 274.046 178.706C263.341 171.73 254.65 181.692 254.65 181.692" stroke="#E2ECDF" stroke-width="2" stroke-linecap="round" stroke-linejoin="round"/>
<path d="M269.472 149.924C269.472 149.924 284.12 145.825 287.48 149.924C290.84 154.024 290.84 170.568 287.48 172.953C284.12 175.338 277.406 182.576 277.406 182.576" stroke="#E2ECDF" stroke-width="2" stroke-linecap="round" stroke-linejoin="round"/>
<path d="M243.601 193.771C241.597 185.283 242.622 176.358 246.498 168.548" stroke="#E2ECDF" stroke-width="2" stroke-linecap="round" stroke-linejoin="round"/>
<path d="M243.618 193.247C244.988 187.285 247.757 181.735 251.693 177.058" stroke="#E2ECDF" stroke-width="2" stroke-linecap="round" stroke-linejoin="round"/>
<path d="M244.451 193.558L251.687 191.315C255.096 190.261 258.674 189.192 262.175 189.885" stroke="#E2ECDF" stroke-width="2" stroke-linecap="round" stroke-linejoin="round"/>
<path d="M101.412 93.5942C101.412 93.5942 102.147 50.779 108.333 28.3398C114.519 5.90052 95.4876 13.1876 84.292 14.8687" stroke="#E2ECDF" stroke-width="2" stroke-linecap="round" stroke-linejoin="round"/>
<path d="M101.412 93.594C90.0849 93.4141 78.8089 95.1524 68.0592 98.7357C50.7103 104.642 32.7244 119.106 24.9593 127.665C19.3615 133.833 19.9224 119.297 10.9648 116.748C2.00714 114.199 -1.90807 94.5604 0.890846 84.4625C3.68976 74.3645 53.5092 73.1909 95.5528 87.6719" stroke="#E2ECDF" stroke-width="2" stroke-linecap="round" stroke-linejoin="round"/>
<path d="M18.7081 76.4874C18.7081 76.4874 3.12899 65.9308 6.48878 57.2302C9.84856 48.5296 11.5149 47.9512 12.3589 38.4373C13.2029 28.9234 20.5269 32.2692 31.679 27.777C36.9283 25.6592 38.3005 29.1144 38.3005 29.1144" stroke="#E2ECDF" stroke-width="2" stroke-linecap="round" stroke-linejoin="round"/>
<path d="M99.0816 89.042C99.0816 89.042 56.8365 49.48 42.8692 41.4835C31.679 35.07 41.8781 12.4943 57.4246 8.13858C68.6202 5.00003 69.742 -3.6461 77.3492 4.20846C84.7876 11.8884 87.0909 40.1187 89.8735 57.2306C92.6561 74.3425 95.5368 81.6407 95.5368 81.6407" stroke="#E2ECDF" stroke-width="2" stroke-linecap="round" stroke-linejoin="round"/>
<path d="M100.524 92.3005C96.6526 80.8762 87.3846 69.2063 81.0462 58.9555C77.5122 53.2352 74.3648 46.6743 75.4266 40.0315" stroke="#E2ECDF" stroke-width="2" stroke-linecap="round" stroke-linejoin="round"/>
<path d="M99.9309 90.6358C97.6003 85.9143 104.222 93.6706 99.9309 90.6358C93.1133 85.8269 74.9912 70.4397 67.444 66.8754C61.6665 64.1463 55.535 61.7064 51.1079 57.116" stroke="#E2ECDF" stroke-width="2" stroke-linecap="round" stroke-linejoin="round"/>
<path d="M99.239 90.1225C90.2379 83.8072 80.2783 79.0098 70.3786 74.2501L32.9038 56.2375" stroke="#E2ECDF" stroke-width="2" stroke-linecap="round" stroke-linejoin="round"/>
<path d="M100.524 92.3003C93.527 89.2273 81.068 86.3564 71.702 86.1709C62.336 85.9853 52.7684 87.3823 44.3989 91.5962" stroke="#E2ECDF" stroke-width="2" stroke-linecap="round" stroke-linejoin="round"/>
<path d="M100.524 92.3C86.0507 91.1483 70.8091 91.034 56.771 94.7402" stroke="#E2ECDF" stroke-width="2" stroke-linecap="round" stroke-linejoin="round"/>
<path d="M100.524 92.3003C96.1353 78.7581 93.6305 60.8823 96.0319 46.8489" stroke="#E2ECDF" stroke-width="2" stroke-linecap="round" stroke-linejoin="round"/>
</svg>